<svg preserveAspectRatio="none" overflow="visible" style="display: block;" width="16" height="16" viewBox="0 0 16 16" fill="none" xmlns="http://www.w3.org/2000/svg">
<g id="IconItem/Normal/Dummy">
<rect width="16" height="16" fill="#6C7691"/>
<path id="Union" d="M2 10.6667C2.36819 10.6667 2.66667 10.9651 2.66667 11.3333V13.3333H4.66667C5.03486 13.3333 5.33333 13.6318 5.33333 14C5.33333 14.3682 5.03486 14.6667 4.66667 14.6667H2.66667C1.93029 14.6667 1.33333 14.0697 1.33333 13.3333V11.3333C1.33333 10.9651 1.63181 10.6667 2 10.6667ZM14 10.6667C14.3682 10.6667 14.6667 10.9651 14.6667 11.3333V13.3333C14.6667 14.0697 14.0697 14.6667 13.3333 14.6667H11.3333C10.9651 14.6667 10.6667 14.3682 10.6667 14C10.6667 13.6318 10.9651 13.3333 11.3333 13.3333H13.3333V11.3333C13.3333 10.9651 13.6318 10.6667 14 10.6667ZM4.66667 1.33333C5.03486 1.33333 5.33333 1.63181 5.33333 2C5.33333 2.36819 5.03486 2.66667 4.66667 2.66667H2.66667V4.66667C2.66667 5.03486 2.36819 5.33333 2 5.33333C1.63181 5.33333 1.33333 5.03486 1.33333 4.66667V2.66667C1.33333 1.93029 1.93029 1.33333 2.66667 1.33333H4.66667ZM13.3333 1.33333C14.0697 1.33333 14.6667 1.93029 14.6667 2.66667V4.66667C14.6667 5.03486 14.3682 5.33333 14 5.33333C13.6318 5.33333 13.3333 5.03486 13.3333 4.66667V2.66667H11.3333C10.9651 2.66667 10.6667 2.36819 10.6667 2C10.6667 1.63181 10.9651 1.33333 11.3333 1.33333H13.3333Z" fill="#B8C0D5"/>
</g>
</svg>
